<svg width="1421" height="1410" viewBox="0 0 1421 1410" fill="none" xmlns="http://www.w3.org/2000/svg">
<path d="M710.5 229.079C1102.71 229.079 1420.5 493.312 1420.5 819.075C1420.5 1144.84 1102.71 1409.07 710.5 1409.07C318.287 1409.07 0.500079 1144.84 0.5 819.075C0.5 493.312 318.287 229.079 710.5 229.079Z" fill="#111111" stroke="#111111"/>
<path d="M361.061 1240.5L369.313 1223.66L406.176 1240.24L396.738 1259.42L361.061 1240.5ZM493.446 1299.95C491.586 1305.34 489.031 1309.69 485.782 1312.97C482.587 1316.23 478.913 1318.58 474.761 1320.02C470.662 1321.42 466.215 1321.98 461.422 1321.7C456.681 1321.39 451.81 1320.37 446.807 1318.64C444.877 1317.98 442.838 1316.99 440.69 1315.68C438.582 1314.38 436.475 1312.94 434.369 1311.38C432.278 1309.78 430.278 1308.16 428.371 1306.54C426.516 1304.88 424.878 1303.37 423.456 1302L434.039 1279.73C436.695 1282.9 439.869 1285.71 443.559 1288.17C447.303 1290.61 451.145 1292.51 455.084 1293.86C455.832 1294.12 456.745 1294.41 457.822 1294.74C458.913 1295.03 459.979 1295.2 461.019 1295.25C462.113 1295.27 463.096 1295.1 463.969 1294.74C464.843 1294.38 465.469 1293.65 465.85 1292.55C466.108 1291.8 466.089 1291.09 465.792 1290.41C465.51 1289.7 465.048 1289.06 464.409 1288.48C463.782 1287.87 463.024 1287.32 462.133 1286.84C461.255 1286.32 460.377 1285.86 459.498 1285.47C458.619 1285.08 457.786 1284.75 456.998 1284.47C456.21 1284.2 455.58 1283.99 455.107 1283.82C451.719 1282.65 448.81 1281.06 446.38 1279.03C443.989 1277.02 442.122 1274.7 440.778 1272.07C439.488 1269.43 438.766 1266.53 438.614 1263.4C438.475 1260.22 438.989 1256.94 440.157 1253.55C441.759 1248.9 444.117 1245.06 447.231 1242.04C450.398 1238.99 453.979 1236.72 457.974 1235.23C462.021 1233.72 466.311 1232.97 470.844 1232.99C475.377 1233.01 479.81 1233.77 484.143 1235.26C486.073 1235.92 488.035 1236.69 490.029 1237.55C492.037 1238.38 493.984 1239.31 495.871 1240.36C497.797 1241.42 499.63 1242.56 501.37 1243.77C503.11 1244.99 504.705 1246.31 506.153 1247.74L495.638 1270.95C493.272 1269.12 490.713 1267.4 487.963 1265.8C485.265 1264.16 482.518 1262.86 479.721 1261.9C479.209 1261.72 478.532 1261.51 477.691 1261.26C476.904 1260.99 476.036 1260.76 475.089 1260.56C474.196 1260.34 473.262 1260.18 472.288 1260.06C471.314 1259.95 470.411 1259.94 469.58 1260.05C468.762 1260.12 468.042 1260.36 467.419 1260.76C466.795 1261.17 466.374 1261.75 466.156 1262.51C465.896 1263.39 465.981 1264.17 466.408 1264.84C466.876 1265.53 467.541 1266.16 468.405 1266.72C469.322 1267.26 470.352 1267.72 471.494 1268.12C472.676 1268.53 473.845 1268.91 475.001 1269.26C476.17 1269.58 477.254 1269.88 478.253 1270.18C479.265 1270.44 480.079 1270.7 480.696 1270.96C483.779 1272.24 486.385 1273.89 488.512 1275.9C490.639 1277.91 492.244 1280.16 493.325 1282.65C494.446 1285.15 495.005 1287.88 495.001 1290.83C495.05 1293.76 494.532 1296.79 493.446 1299.95ZM603.359 1268.32L597.83 1294.24L579.389 1291.53L566.423 1348.1L540.251 1344.56L548.672 1287.13L530.185 1284.66L536.392 1255.81L603.359 1268.32ZM706.316 1276.73C703.872 1291.31 701.701 1305.84 699.802 1320.32C697.906 1334.76 696.068 1349.3 694.288 1363.95L668.609 1364.83L670.108 1355.26C669.238 1356.18 668.227 1356.98 667.075 1357.64C665.965 1358.31 664.777 1358.84 663.51 1359.25C662.245 1359.62 660.942 1359.88 659.601 1360.04C658.263 1360.15 656.99 1360.17 655.784 1360.08C652.955 1359.93 650.311 1359.28 647.854 1358.14C645.398 1356.96 643.163 1355.46 641.149 1353.63C639.137 1351.76 637.344 1349.62 635.769 1347.23C634.196 1344.79 632.877 1342.26 631.812 1339.63C630.79 1336.96 630.019 1334.26 629.5 1331.53C629.023 1328.8 628.834 1326.17 628.933 1323.63C629.078 1319.88 629.292 1316.01 629.572 1312.02C629.896 1307.99 630.324 1303.96 630.856 1299.94C631.388 1295.91 632.023 1291.93 632.759 1288C633.538 1284.07 634.456 1280.31 635.513 1276.73C640.583 1277.17 645.674 1277.6 650.787 1278.01C655.9 1278.42 660.998 1278.68 666.081 1278.79C664.982 1282.38 663.882 1285.98 662.782 1289.61C661.725 1293.2 660.75 1296.83 659.856 1300.5C658.964 1304.14 658.217 1307.8 657.614 1311.49C657.012 1315.17 656.637 1318.91 656.49 1322.7C656.455 1323.58 656.448 1324.83 656.468 1326.45C656.488 1328.08 656.634 1329.69 656.906 1331.29C657.219 1332.88 657.706 1334.3 658.367 1335.53C659.071 1336.73 660.089 1337.35 661.421 1337.41C663.003 1337.47 664.445 1336.86 665.746 1335.57C667.048 1334.25 668.223 1332.46 669.27 1330.21C670.316 1327.95 671.231 1325.34 672.014 1322.37C672.839 1319.4 673.543 1316.3 674.128 1313.07C674.755 1309.8 675.28 1306.5 675.701 1303.18C676.122 1299.87 676.452 1296.75 676.69 1293.84C676.972 1290.89 677.179 1288.25 677.312 1285.92C677.486 1283.59 677.598 1281.78 677.648 1280.49C677.681 1279.66 677.691 1278.85 677.681 1278.06C677.67 1277.26 677.639 1276.45 677.588 1275.61C680.291 1275.8 682.974 1275.97 685.637 1276.11C688.3 1276.26 690.985 1276.38 693.691 1276.49C695.773 1276.57 697.855 1276.65 699.936 1276.73C702.061 1276.77 704.188 1276.77 706.316 1276.73ZM810.05 1308.26C810.689 1314.06 810.516 1319.34 809.532 1324.1C808.547 1328.86 806.905 1333.17 804.606 1337.03C802.343 1340.85 799.505 1344.2 796.093 1347.09C792.681 1349.98 788.869 1352.47 784.657 1354.57C780.44 1356.63 775.888 1358.31 771 1359.6C766.154 1360.89 761.121 1361.82 755.903 1362.39C753.956 1362.61 752.046 1362.78 750.174 1362.9C748.296 1362.98 746.373 1363.02 744.403 1363.03L737.231 1281.95C741.627 1280 746.196 1278.47 750.936 1277.36C755.713 1276.21 760.483 1275.37 765.246 1274.84C771.169 1274.19 776.706 1274.42 781.858 1275.53C787.011 1276.64 791.567 1278.61 795.526 1281.44C799.48 1284.23 802.712 1287.88 805.22 1292.38C807.765 1296.84 809.375 1302.13 810.05 1308.26ZM770.434 1336.77C772.878 1336.13 775.053 1335.13 776.959 1333.79C778.902 1332.4 780.528 1330.8 781.837 1328.98C783.141 1327.12 784.07 1325.08 784.624 1322.89C785.215 1320.64 785.378 1318.32 785.113 1315.92C784.853 1313.55 784.363 1311.39 783.642 1309.41C782.917 1307.4 781.913 1305.7 780.631 1304.34C779.344 1302.93 777.741 1301.89 775.823 1301.22C773.9 1300.51 771.609 1300.26 768.949 1300.47L770.434 1336.77ZM867.823 1259.17L883.295 1342.99L857.957 1350.44L835.884 1268.57L867.823 1259.17ZM984.094 1261.62C985.461 1265.16 986.375 1268.74 986.836 1272.36C987.281 1275.94 987.282 1279.47 986.839 1282.94C986.435 1286.4 985.591 1289.77 984.307 1293.03C983.046 1296.25 981.367 1299.24 979.268 1302.02C977.209 1304.78 974.754 1307.27 971.903 1309.49C969.038 1311.67 965.798 1313.45 962.184 1314.85C958.686 1316.2 955.171 1317.05 951.638 1317.39C948.145 1317.71 944.71 1317.61 941.335 1317.08C937.945 1316.51 934.687 1315.54 931.562 1314.16C928.46 1312.72 925.579 1310.93 922.92 1308.78C920.284 1306.59 917.903 1304.07 915.777 1301.23C913.69 1298.37 911.979 1295.21 910.642 1291.75C909.335 1288.37 908.467 1284.91 908.036 1281.37C907.591 1277.79 907.57 1274.27 907.974 1270.81C908.417 1267.33 909.261 1263.97 910.507 1260.71C911.752 1257.46 913.377 1254.45 915.383 1251.66C917.428 1248.86 919.836 1246.37 922.609 1244.18C925.382 1241.99 928.517 1240.22 932.015 1238.87C937.65 1236.69 943.118 1235.58 948.419 1235.54C953.759 1235.49 958.692 1236.46 963.218 1238.47C967.769 1240.42 971.831 1243.36 975.407 1247.29C979.006 1251.17 981.902 1255.95 984.094 1261.62ZM958.796 1273.14C958.15 1271.47 957.274 1269.96 956.168 1268.6C955.086 1267.18 953.846 1266.06 952.447 1265.21C951.034 1264.33 949.485 1263.79 947.8 1263.59C946.14 1263.34 944.415 1263.56 942.628 1264.25C940.801 1264.95 939.296 1265.92 938.114 1267.13C936.931 1268.35 936.04 1269.74 935.441 1271.31C934.867 1272.83 934.607 1274.47 934.664 1276.24C934.706 1277.96 935.057 1279.68 935.718 1281.39C936.349 1283.02 937.213 1284.57 938.31 1286.02C939.407 1287.47 940.678 1288.68 942.121 1289.64C943.564 1290.6 945.124 1291.22 946.8 1291.52C948.514 1291.79 950.285 1291.58 952.112 1290.87C953.938 1290.16 955.435 1289.18 956.603 1287.93C957.795 1286.62 958.663 1285.17 959.208 1283.57C959.738 1281.94 959.967 1280.22 959.895 1278.41C959.823 1276.61 959.457 1274.85 958.796 1273.14ZM1024.68 1259.62L1015.56 1243.23L1050.22 1222.43L1060.58 1241.13L1024.68 1259.62Z" fill="white"/>
<path d="M386.749 383.539L394.236 400.731L431.806 385.825L423.238 366.241L386.749 383.539ZM552.385 381.524L511.909 349.871L524.035 300.324L494.75 303.432L483.972 334.639L475.186 307.771L449.927 314.012L478.369 405.461L505.905 395.833L495.918 369.311L522.81 392.651L552.385 381.524ZM634.883 367.242C634.103 363.395 633.35 359.587 632.623 355.818C631.896 352.048 631.102 348.246 630.239 344.411L603.798 346.647L602.11 338.93L620.562 336.401L616.569 317.392L597.907 319.319L596.049 310.364L611.405 308.259L622.303 306.765C621.433 302.258 620.545 297.774 619.64 293.314C618.781 288.89 617.94 284.442 617.117 279.971L563.571 286.049L577.792 375.067L634.883 367.242ZM737.548 318.141C737.565 314.349 737.145 310.681 736.286 307.135C735.427 303.631 734.172 300.333 732.519 297.242C730.909 294.152 728.922 291.309 726.559 288.715C724.237 286.162 721.602 283.963 718.652 282.116C715.744 280.269 712.563 278.816 709.109 277.759C705.656 276.743 701.992 276.226 698.117 276.208C694.367 276.19 690.781 276.653 687.36 277.596C683.981 278.538 680.808 279.857 677.842 281.551C674.875 283.288 672.178 285.359 669.75 287.764C667.364 290.211 665.31 292.91 663.588 295.861C661.907 298.853 660.58 302.055 659.606 305.467C658.673 308.88 658.198 312.44 658.181 316.148C658.164 319.773 658.585 323.317 659.444 326.779C660.303 330.283 661.538 333.581 663.149 336.672C664.801 339.763 666.788 342.605 669.109 345.199C671.431 347.793 674.024 350.035 676.891 351.923C679.799 353.811 682.938 355.284 686.308 356.341C689.678 357.399 693.238 357.936 696.988 357.953C703.03 357.981 708.534 357.069 713.501 355.217C718.509 353.366 722.772 350.698 726.288 347.214C729.846 343.772 732.594 339.577 734.534 334.627C736.515 329.72 737.52 324.224 737.548 318.141ZM709.806 316.387C709.797 318.179 709.518 319.907 708.969 321.571C708.461 323.277 707.704 324.774 706.698 326.061C705.692 327.389 704.437 328.446 702.934 329.231C701.471 330.057 699.782 330.466 697.865 330.457C695.907 330.448 694.159 330.086 692.62 329.37C691.082 328.655 689.753 327.67 688.634 326.414C687.556 325.201 686.73 323.76 686.154 322.09C685.578 320.463 685.294 318.732 685.303 316.899C685.311 315.149 685.569 313.4 686.077 311.652C686.585 309.905 687.343 308.325 688.349 306.913C689.356 305.501 690.59 304.361 692.053 303.493C693.557 302.624 695.288 302.195 697.246 302.204C699.204 302.213 700.953 302.596 702.491 303.353C704.071 304.152 705.399 305.2 706.476 306.497C707.553 307.835 708.38 309.36 708.955 311.071C709.531 312.782 709.814 314.554 709.806 316.387ZM850.039 377.88L859.747 293.568L827.957 285.144L803.129 326.961L808.137 280.901L780.407 276.207L767.833 363.964L798.395 370.659L827.227 329.9L821.12 371.97L850.039 377.88ZM954.148 408.441L939.237 359.27L977.65 325.708L951.905 311.41L925.142 330.742L933.405 303.709L909.151 294.288L879.83 385.46L907.894 393.418L914.975 365.978L923.554 400.536L954.148 408.441ZM998.151 366.039L989.793 382.824L1025.36 402.028L1034.86 382.877L998.151 366.039Z" fill="white"/>
<ellipse cx="417.157" cy="702.881" rx="62.8592" ry="70.4786" fill="white"/>
<ellipse cx="1003.84" cy="702.881" rx="62.8592" ry="70.4786" fill="white"/>
<path d="M789.791 887.649H624.253C621.602 887.649 620.254 890.835 622.1 892.738L710.925 984.312C712.163 985.589 714.235 985.513 715.378 984.149L792.09 892.575C793.726 890.623 792.338 887.649 789.791 887.649Z" fill="white"/>
<path d="M712.405 975.271C723.655 1021.15 767.596 1092.26 853.362 1009.68" stroke="white" stroke-width="17"/>
<path d="M712.405 975.271C701.155 1021.15 657.213 1092.26 571.448 1009.68" stroke="white" stroke-width="17"/>
<path d="M204.618 2.41759C173.146 66.9305 125.932 356.609 145.603 460.968L480.016 259.841C388.742 121.709 247.896 -20.3508 204.618 2.41759Z" fill="#111111"/>
<path d="M1216.38 2.41761C1247.86 66.9305 1295.07 356.609 1275.4 460.968L940.984 259.841C1032.26 121.708 1173.1 -20.3508 1216.38 2.41761Z" fill="#111111"/>
</svg>
